{"title":"Bad Ass 2012 VODRiP AC3-2.0 XviD-SiC","uid":7183273,"size":1448904955,"categoryP":"video","categoryS":"movies","magnet":"?xt=urn:btih:362aa467e12e22a6b8ceecea76006ef767ee6b5f&amp;dn=Bad+Ass+2012+VODRiP+AC3-2.0+XviD-SiC&amp;tr=udp%3A%2F%2Ftracker.openbittorrent.com%3A80&amp;tr=udp%3A%2F%2Fopen.demonii.com%3A1337&amp;tr=udp%3A%2F%2Ftracker.coppersurfer.tk%3A6969&amp;tr=udp%3A%2F%2Fexodus.desync.com%3A6969","seeders":0,"leechers":1,"uploader":"HeroMaster","files":-1,"time":1334342858,"description":"Bad Ass 2012 VODRiP AC3-2.0 XviD-SiC\n\nIMDB Link: &lt;a href=&quot;\nhttp://www.imdb.com/title/tt1928330/&quot; rel=&quot;nofollow&quot; target=&quot;_NEW&quot;&gt;\nhttp://www.imdb.com/title/tt1928330/&lt;/a&gt;\n\nDescription:\nA Vietnam veteran who becomes a local hero after saving a man from attackers on a city bus decides to take action when his best friend is murdered and the police show little interest in solving the crime.  \n\nMediaInfo:\nGeneral\nComplete name                            : Bad.Ass.2012.VODRiP.AC3-2.0.XviD-SiC.avi\nFormat                                   : AVI\nFormat/Info                              : Audio Video Interleave\nFile size                                : 1.33 GiB\nDuration                                 : 1h 30mn\nOverall bit rate                         : 2 118 Kbps\n\nVideo\nID                                       : 0\nFormat                                   : MPEG-4 Visual\nFormat profile                           : Advanced Simple@L5\nFormat settings, BVOP                    : 2\nFormat settings, QPel                    : No\nFormat settings, GMC                     : No warppoints\nFormat settings, Matrix                  : Default (H.263)\nMuxing mode                              : Packed bitstream\nCodec ID                                 : XVID\nCodec ID/Hint                            : XviD\nDuration                                 : 1h 30mn\nBit rate                                 : 1 854 Kbps\nWidth                                    : 720 pixels\nHeight                                   : 400 pixels\nDisplay aspect ratio                     : 16:9\nFrame rate                               : 23.976 fps\nColor space                              : YUV\nChroma subsampling                       : 4:2:0\nBit depth                                : 8 bits\nScan type                                : Progressive\nCompression mode                         : Lossy\nBits/(Pixel*Frame)                       : 0.269\nStream size                              : 1.17 GiB (88%)\nWriting library                          : XviD 1.1.2 (UTC 2006-11-01)\n\nAudio\nID                                       : 1\nFormat                                   : AC-3\nFormat/Info                              : Audio Coding 3\nMode extension                           : CM (complete main)\nCodec ID                                 : 2000\nDuration                                 : 1h 30mn\nBit rate mode                            : Constant\nBit rate                                 : 256 Kbps\nChannel(s)                               : 2 channels\nChannel positions                        : Front: L R\nSampling rate                            : 48.0 KHz\nBit depth                                : 16 bits\nCompression mode                         : Lossy\nStream size                              : 165 MiB (12%)\nAlignment                                : Aligned on interleaves\nInterleave, duration                     : 64 ms (1.53 video frames)\nInterleave, preload duration             : 192 ms\nTitle                                    : badass\n\n\nPoster:\n\n &lt;a href=&quot;\nhttp://i.imgur.com/nJJDw.jpg&quot; rel=&quot;nofollow&quot; target=&quot;_NEW&quot;&gt;\nhttp://i.imgur.com/nJJDw.jpg&lt;/a&gt;\n\n\nScreenshots:\n\n &lt;a href=&quot;\nhttp://i.imgur.com/vMZqY.jpg&quot; rel=&quot;nofollow&quot; target=&quot;_NEW&quot;&gt;\nhttp://i.imgur.com/vMZqY.jpg&lt;/a&gt;\n\n\nENJOY!","torrent":{"xt":"urn:btih:362aa467e12e22a6b8ceecea76006ef767ee6b5f","amp;dn":"Bad+Ass+2012+VODRiP+AC3-2.0+XviD-SiC","amp;tr":["udp%3A%2F%2Ftracker.openbittorrent.com%3A80","udp%3A%2F%2Fopen.demonii.com%3A1337","udp%3A%2F%2Ftracker.coppersurfer.tk%3A6969","udp%3A%2F%2Fexodus.desync.com%3A6969"],"infoHash":"362aa467e12e22a6b8ceecea76006ef767ee6b5f","infoHashBuffer":{"type":"Buffer","data":[54,42,164,103,225,46,34,166,184,206,236,234,118,0,110,247,103,238,107,95]},"announce":[],"urlList":[]}}